<svg width="256" height="256" viewBox="0 0 256 256" xmlns="http://www.w3.org/2000/svg" role="img" aria-label="Diamond above hand with watch">
  <defs>
    <linearGradient id="bg" x1="0" y1="0" x2="1" y2="1">
      <stop offset="0%" stop-color="#fde047"/>
      <stop offset="100%" stop-color="#eab308"/>
    </linearGradient>
    <linearGradient id="skin" x1="0" y1="0" x2="0" y2="1">
      <stop offset="0%" stop-color="#ffffff"/>
      <stop offset="100%" stop-color="#e2e8f0"/>
    </linearGradient>
    <linearGradient id="watchMetal" x1="0" y1="0" x2="1" y2="1">
      <stop offset="0%" stop-color="#f8fafc"/>
      <stop offset="100%" stop-color="#cbd5e1"/>
    </linearGradient>
    <linearGradient id="diamond" x1="0" y1="0" x2="1" y2="1">
      <stop offset="0%" stop-color="#eff6ff"/>
      <stop offset="100%" stop-color="#93c5fd"/>
    </linearGradient>
  </defs>
  <rect x="8" y="8" width="240" height="240" rx="40" fill="url(#bg)"/>
  <g transform="translate(0,2)">
    <polygon points="128,34 95,66 161,66" fill="url(#diamond)" stroke="#1d4ed8" stroke-width="4"/>
    <polygon points="95,66 161,66 150,95 106,95" fill="#bfdbfe" stroke="#1d4ed8" stroke-width="4"/>
    <line x1="128" y1="34" x2="128" y2="95" stroke="#1d4ed8" stroke-width="3"/>
    <line x1="108" y1="66" x2="116" y2="95" stroke="#1d4ed8" stroke-width="3"/>
    <line x1="148" y1="66" x2="140" y2="95" stroke="#1d4ed8" stroke-width="3"/>
  </g>
  <g transform="translate(0,6)">
    <rect x="54" y="138" width="148" height="62" rx="30" fill="url(#skin)" stroke="#94a3b8" stroke-width="3"/>
    <rect x="156" y="132" width="58" height="66" rx="14" fill="#f8fafc" stroke="#94a3b8" stroke-width="3"/>
    <circle cx="187" cy="166" r="20" fill="url(#watchMetal)" stroke="#334155" stroke-width="3"/>
    <circle cx="187" cy="166" r="12" fill="#0f172a" stroke="#94a3b8" stroke-width="2"/>
    <line x1="187" y1="166" x2="187" y2="158" stroke="#f8fafc" stroke-width="2"/>
    <line x1="187" y1="166" x2="194" y2="166" stroke="#f8fafc" stroke-width="2"/>
    <rect x="171" y="138" width="32" height="10" rx="5" fill="#e2e8f0"/>
    <rect x="171" y="184" width="32" height="10" rx="5" fill="#e2e8f0"/>
  </g>
</svg>
