<svg width="256" height="256" viewBox="0 0 256 256" xmlns="http://www.w3.org/2000/svg" role="img" aria-label="Diamond trader character holding two diamonds">
  <defs>
    <linearGradient id="bg" x1="0" y1="0" x2="1" y2="1">
      <stop offset="0%" stop-color="#fde047"/>
      <stop offset="100%" stop-color="#eab308"/>
    </linearGradient>
    <linearGradient id="hoodie" x1="0" y1="0" x2="0" y2="1">
      <stop offset="0%" stop-color="#1f2937"/>
      <stop offset="100%" stop-color="#0f172a"/>
    </linearGradient>
    <linearGradient id="skin" x1="0" y1="0" x2="0" y2="1">
      <stop offset="0%" stop-color="#ffffff"/>
      <stop offset="100%" stop-color="#f8fafc"/>
    </linearGradient>
    <linearGradient id="diamond" x1="0" y1="0" x2="1" y2="1">
      <stop offset="0%" stop-color="#f8fbff"/>
      <stop offset="100%" stop-color="#93c5fd"/>
    </linearGradient>
    <linearGradient id="watchMetal" x1="0" y1="0" x2="1" y2="1">
      <stop offset="0%" stop-color="#f8fafc"/>
      <stop offset="100%" stop-color="#cbd5e1"/>
    </linearGradient>
  </defs>

  <rect x="8" y="8" width="240" height="240" rx="40" fill="url(#bg)"/>

  <circle cx="128" cy="92" r="40" fill="url(#hoodie)" stroke="#111827" stroke-width="4"/>
  <circle cx="128" cy="94" r="26" fill="url(#skin)" stroke="#94a3b8" stroke-width="3"/>
  <rect x="108" y="84" width="40" height="11" rx="5.5" fill="#0f172a"/>
  <circle cx="117" cy="89.5" r="5.5" fill="#111827"/>
  <circle cx="139" cy="89.5" r="5.5" fill="#111827"/>
  <path d="M115 105 Q128 114 141 105" fill="none" stroke="#475569" stroke-width="3" stroke-linecap="round"/>

  <path d="M60 206 C62 162, 88 138, 128 138 C168 138, 194 162, 196 206 Z" fill="url(#hoodie)" stroke="#0f172a" stroke-width="4"/>

  <rect x="42" y="150" width="54" height="36" rx="18" fill="url(#skin)" stroke="#64748b" stroke-width="3"/>
  <rect x="160" y="150" width="54" height="36" rx="18" fill="url(#skin)" stroke="#64748b" stroke-width="3"/>

  <g transform="translate(33 114)">
    <polygon points="36,0 20,16 52,16" fill="url(#diamond)" stroke="#1d4ed8" stroke-width="3"/>
    <polygon points="20,16 52,16 46,34 26,34" fill="#bfdbfe" stroke="#1d4ed8" stroke-width="3"/>
    <line x1="36" y1="0" x2="36" y2="34" stroke="#1d4ed8" stroke-width="2.5"/>
  </g>

  <g transform="translate(171 114)">
    <polygon points="36,0 20,16 52,16" fill="url(#diamond)" stroke="#1d4ed8" stroke-width="3"/>
    <polygon points="20,16 52,16 46,34 26,34" fill="#bfdbfe" stroke="#1d4ed8" stroke-width="3"/>
    <line x1="36" y1="0" x2="36" y2="34" stroke="#1d4ed8" stroke-width="2.5"/>
  </g>

  <rect x="172" y="181" width="34" height="12" rx="6" fill="#e2e8f0"/>
  <circle cx="189" cy="198" r="15" fill="url(#watchMetal)" stroke="#334155" stroke-width="3"/>
  <circle cx="189" cy="198" r="9" fill="#0f172a" stroke="#94a3b8" stroke-width="2"/>
  <line x1="189" y1="198" x2="189" y2="192" stroke="#f8fafc" stroke-width="1.8"/>
  <line x1="189" y1="198" x2="195" y2="198" stroke="#f8fafc" stroke-width="1.8"/>
</svg>
